<?xml version="1.0" encoding="UTF-8" standalone="no"?> <svg width="512" height="512" viewBox="0 0 512 512" fill="none" xmlns="http://www.w3.org/2000/svg">
<path d="M40 144.699L55.9 112.899C60.7379 103.224 68.1744 95.0864 77.3764 89.3991C86.5785 83.7119 97.1823 80.6994 108 80.6992V80.6992C118.818 80.6994 129.422 83.7119 138.624 89.3991C147.826 95.0864 155.262 103.224 160.1 112.899L176 144.699H40Z" fill="#EAEAE8"/>
<path d="M422.065 205.446C412.352 205.473 402.73 203.573 393.756 199.855C384.783 196.138 376.635 190.678 369.786 183.791V183.791C357.691 171.696 350.164 155.781 348.487 138.759C346.811 121.736 351.089 104.659 360.592 90.4363C370.095 76.2141 384.235 65.7268 400.604 60.7616C416.972 55.7964 434.556 56.6603 450.359 63.2062C466.162 69.7521 479.206 81.5749 487.27 96.6603C495.333 111.746 497.916 129.16 494.579 145.936C491.242 162.713 482.191 177.813 468.968 188.664C455.746 199.515 439.17 205.446 422.065 205.446ZM422.065 73.5761C410.607 73.5764 399.406 76.9744 389.879 83.3403C380.352 89.7063 372.926 98.7543 368.542 109.34C364.157 119.926 363.009 131.575 365.244 142.813C367.48 154.051 372.997 164.374 381.099 172.476V172.476C387.836 179.213 396.13 184.185 405.248 186.951C414.365 189.717 424.024 190.192 433.368 188.333C442.713 186.475 451.455 182.34 458.82 176.296C466.185 170.252 471.945 162.484 475.591 153.682C479.237 144.88 480.656 135.314 479.722 125.832C478.789 116.351 475.531 107.245 470.237 99.3236C464.944 91.4018 457.779 84.9077 449.376 80.4165C440.973 75.9254 431.593 73.5759 422.065 73.5761V73.5761Z" fill="#2C91FF"/>
<path d="M88 128C92.4183 128 96 124.418 96 120C96 115.582 92.4183 112 88 112C83.5817 112 80 115.582 80 120C80 124.418 83.5817 128 88 128Z" fill="#CBCBCB"/>
<path d="M120 120C124.418 120 128 116.418 128 112C128 107.582 124.418 104 120 104C115.582 104 112 107.582 112 112C112 116.418 115.582 120 120 120Z" fill="#CBCBCB"/>
<path d="M369.317 144.699H26.457C26.4569 164.349 32.7277 183.486 44.3569 199.325C55.986 215.164 72.3665 226.878 91.1143 232.763C109.862 238.648 129.999 238.396 148.593 232.044C167.188 225.693 183.271 213.572 194.5 197.447H369.317C376.312 197.447 383.02 194.669 387.966 189.722C392.912 184.776 395.691 178.068 395.691 171.073V171.073C395.691 164.078 392.912 157.37 387.966 152.424C383.02 147.478 376.312 144.699 369.317 144.699V144.699Z" fill="#FAA6B2"/>
<path d="M387.967 152.425C385.518 149.975 382.61 148.033 379.41 146.707C376.21 145.381 372.781 144.699 369.317 144.699C365.853 144.699 362.424 145.381 359.224 146.707C356.024 148.033 353.116 149.975 350.667 152.425L126.877 376.215C138.206 387.547 152.708 395.171 168.466 398.08C184.223 400.988 200.492 399.043 215.119 392.502C229.747 385.961 242.043 375.132 250.381 361.449C258.719 347.766 262.706 331.873 261.813 315.875L387.967 189.723C392.913 184.777 395.691 178.068 395.691 171.074C395.691 164.079 392.913 157.371 387.967 152.425V152.425Z" fill="#FBB540"/>
<path d="M397.954 348.656V171.073C397.954 167.61 397.272 164.18 395.946 160.98C394.621 157.78 392.678 154.873 390.229 152.424C387.78 149.975 384.873 148.032 381.673 146.707C378.473 145.381 375.044 144.699 371.58 144.699V144.699C364.585 144.699 357.877 147.478 352.931 152.424C347.985 157.37 345.206 164.078 345.206 171.073V447.999C356.766 447.998 368.108 444.85 378.015 438.893C387.922 432.935 396.02 424.393 401.441 414.183C406.863 403.973 409.402 392.48 408.788 380.936C408.174 369.392 404.428 358.233 397.954 348.656V348.656Z" fill="#92D1F7"/>
<path d="M422.065 205.446C404.597 205.442 387.694 199.258 374.348 187.987C373.546 187.309 372.885 186.479 372.404 185.545C371.922 184.611 371.629 183.592 371.542 182.545C371.454 181.498 371.574 180.444 371.894 179.443C372.214 178.443 372.727 177.515 373.406 176.712C374.084 175.91 374.914 175.25 375.848 174.768C376.781 174.287 377.801 173.994 378.848 173.906C379.895 173.819 380.949 173.938 381.949 174.258C382.95 174.578 383.878 175.092 384.68 175.77C396.096 185.416 410.799 190.277 425.715 189.337C440.631 188.397 454.606 181.729 464.721 170.726C474.837 159.724 480.308 145.238 479.993 130.295C479.678 115.353 473.601 101.11 463.031 90.5439C462.288 89.801 461.699 88.9191 461.297 87.9485C460.895 86.9778 460.688 85.9375 460.688 84.8869C460.688 83.8363 460.895 82.796 461.297 81.8254C461.699 80.8547 462.288 79.9728 463.031 79.2299C463.774 78.487 464.656 77.8977 465.627 77.4957C466.597 77.0936 467.638 76.8867 468.688 76.8867C469.739 76.8867 470.779 77.0936 471.75 77.4957C472.72 77.8977 473.602 78.487 474.345 79.2299C484.685 89.5701 491.727 102.744 494.579 117.086C497.432 131.428 495.968 146.294 490.372 159.804C484.776 173.314 475.3 184.861 463.141 192.985C450.983 201.109 436.688 205.446 422.065 205.446V205.446Z" fill="#2C91FF"/>
<path d="M77.808 193.996C75.7137 193.999 73.7024 193.178 72.208 191.71C69.3522 188.911 66.7634 185.852 64.475 182.572C63.8741 181.711 63.4488 180.739 63.2234 179.713C62.998 178.687 62.9769 177.626 63.1614 176.592C63.3459 175.558 63.7322 174.57 64.2985 173.685C64.8647 172.8 65.5997 172.035 66.4615 171.434C67.3233 170.833 68.295 170.408 69.3212 170.182C70.3473 169.957 71.4079 169.936 72.4422 170.12C73.4765 170.305 74.4643 170.691 75.3493 171.257C76.2343 171.824 76.9991 172.559 77.6 173.42C79.3191 175.883 81.2638 178.18 83.409 180.282C84.5442 181.395 85.3223 182.82 85.6441 184.377C85.966 185.933 85.8169 187.55 85.216 189.021C84.6151 190.493 83.5895 191.752 82.2701 192.638C80.9507 193.524 79.3973 193.997 77.808 193.996Z" fill="#FFD6DB"/>
<path d="M117 209.996C110.81 210 104.652 209.107 98.7179 207.345C96.6842 206.74 94.9742 205.352 93.9642 203.486C92.9541 201.62 92.7267 199.429 93.3319 197.395C93.9371 195.362 95.3254 193.652 97.1914 192.642C99.0574 191.631 101.248 191.404 103.282 192.009C112.966 194.883 123.31 194.634 132.845 191.297C142.38 187.96 150.622 181.705 156.401 173.419C157.615 171.679 159.47 170.492 161.559 170.12C163.648 169.748 165.799 170.221 167.539 171.435C169.28 172.649 170.466 174.504 170.838 176.593C171.211 178.682 170.738 180.833 169.524 182.573C163.622 191.034 155.765 197.945 146.621 202.719C137.477 207.493 127.315 209.99 117 209.996V209.996Z" fill="#FFD6DB"/>
<path d="M180.007 377.668C178.754 377.668 177.489 377.626 176.246 377.543C175.198 377.473 174.174 377.197 173.232 376.731C172.29 376.266 171.45 375.619 170.758 374.828C170.066 374.037 169.537 373.118 169.201 372.123C168.864 371.127 168.727 370.076 168.797 369.027C168.867 367.979 169.143 366.955 169.609 366.013C170.075 365.071 170.722 364.231 171.512 363.539C172.303 362.847 173.222 362.318 174.218 361.982C175.213 361.645 176.265 361.508 177.313 361.578C180.289 361.776 183.277 361.645 186.224 361.185C188.315 360.866 190.448 361.389 192.155 362.638C193.862 363.888 195.005 365.762 195.333 367.852C195.662 369.942 195.149 372.077 193.907 373.79C192.665 375.503 190.796 376.654 188.707 376.991C185.829 377.442 182.92 377.668 180.007 377.668V377.668Z" fill="#FFC864"/>
<path d="M211.081 366.156C209.448 366.156 207.853 365.657 206.512 364.724C205.17 363.791 204.146 362.471 203.578 360.939C203.01 359.407 202.924 357.739 203.332 356.157C203.74 354.575 204.623 353.156 205.861 352.091C213.059 345.913 217.804 337.359 219.233 327.981C219.55 325.884 220.687 323.997 222.395 322.738C224.102 321.478 226.24 320.949 228.338 321.265C230.436 321.582 232.322 322.72 233.582 324.427C234.841 326.135 235.371 328.273 235.054 330.371C233.052 343.535 226.396 355.546 216.293 364.221C214.845 365.471 212.995 366.158 211.081 366.156V366.156Z" fill="#FFC864"/>
<path d="M382.067 393.597H382.025C380.975 393.591 379.935 393.379 378.967 392.972C377.998 392.565 377.119 391.971 376.38 391.224C375.641 390.478 375.056 389.593 374.659 388.62C374.262 387.647 374.061 386.606 374.066 385.556C374.087 380.304 372.19 375.226 368.731 371.275C367.337 369.675 366.634 367.588 366.779 365.471C366.923 363.354 367.903 361.381 369.502 359.987C371.101 358.592 373.189 357.89 375.306 358.034C377.423 358.179 379.396 359.158 380.79 360.758C386.809 367.644 390.107 376.491 390.066 385.638C390.055 387.752 389.208 389.776 387.709 391.268C386.21 392.759 384.182 393.596 382.067 393.597V393.597Z" fill="#5EBEF7"/>
</svg>
