<?xml version="1.0" standalone="no"?>
<!DOCTYPE svg PUBLIC "-//W3C//DTD SVG 20010904//EN"
 "http://www.w3.org/TR/2001/REC-SVG-20010904/DTD/svg10.dtd">
<svg version="1.0" xmlns="http://www.w3.org/2000/svg"
 width="300.000000pt" height="300.000000pt" viewBox="0 0 300.000000 300.000000"
 preserveAspectRatio="xMidYMid meet">
<metadata>
Created by potrace 1.10, written by Peter Selinger 2001-2011
</metadata>
<g transform="translate(0.000000,300.000000) scale(0.100000,-0.100000)"
fill="#000000" stroke="none">
<path d="M2555 2674 c52 -19 103 -69 115 -114 6 -22 10 -419 10 -1063 0 -902
-2 -1032 -15 -1064 -20 -48 -41 -71 -87 -94 -36 -18 -76 -19 -1081 -19 l-1044
0 -44 23 c-33 17 -50 35 -69 72 l-25 50 -5 1025 -5 1025 -3 -1015 c-1 -710 1
-1027 9 -1055 16 -57 55 -104 108 -129 46 -21 50 -21 1041 -24 708 -2 1015 1
1063 9 60 10 75 17 112 53 27 25 47 56 54 81 8 28 11 351 11 1065 l0 1025 -24
50 c-13 28 -32 58 -42 67 -22 20 -87 48 -106 47 -7 0 5 -7 27 -15z"/>
<path d="M358 2630 c-21 -23 -38 -49 -38 -58 0 -10 6 -5 15 13 9 17 30 42 47
58 18 15 28 27 24 27 -5 0 -26 -18 -48 -40z"/>
<path d="M1943 2129 c-82 -40 -133 -121 -133 -209 0 -47 2 -50 25 -50 23 0 25
4 25 45 0 104 81 185 185 185 83 0 140 -37 176 -115 47 -100 -8 -219 -117
-255 -46 -16 -100 -8 -158 21 -34 17 -49 20 -57 12 -19 -19 -3 -40 55 -68 190
-93 394 83 336 289 -37 133 -211 208 -337 145z"/>
<path d="M1030 1981 c0 -26 17 -36 35 -21 18 15 8 40 -16 40 -12 0 -19 -7 -19
-19z"/>
<path d="M924 1959 c-3 -6 0 -17 8 -25 13 -13 16 -13 27 0 7 8 10 20 6 26 -8
13 -32 13 -41 -1z"/>
<path d="M745 1836 c25 -119 71 -185 165 -234 62 -32 69 -34 151 -30 97 5 151
29 207 92 l31 36 173 3 173 3 -176 2 -177 2 -42 -41 c-60 -58 -120 -82 -205
-83 -59 0 -79 5 -125 29 -64 35 -136 119 -146 170 -13 70 -48 65 506 65 337 0
500 3 500 10 0 7 -168 10 -520 9 l-521 -2 6 -31z"/>
<path d="M1870 1865 c0 -2 13 -11 30 -20 16 -8 37 -29 46 -46 20 -39 31 -30
14 11 -7 17 -25 37 -41 45 -28 15 -49 19 -49 10z"/>
<path d="M1748 1776 c-60 -65 -70 -92 -13 -36 l34 33 9 -34 10 -34 0 41 c0 23
5 51 12 63 20 38 7 30 -52 -33z"/>
<path d="M1126 1749 c-30 -22 -51 -29 -90 -31 l-51 -1 44 -4 c51 -5 90 9 122
43 29 31 23 29 -25 -7z"/>
<path d="M1220 1752 c0 -15 -48 -59 -85 -79 -16 -9 -55 -19 -85 -23 l-55 -7
46 -2 c33 -1 62 7 99 27 53 27 100 75 87 89 -4 3 -7 1 -7 -5z"/>
<path d="M1375 1400 l-300 -301 25 -19 c68 -53 184 -64 266 -26 83 39 154 144
154 230 0 14 48 69 135 156 120 120 157 170 125 170 -5 0 -10 -5 -10 -12 0 -7
-56 -67 -123 -134 -143 -140 -157 -158 -157 -199 -1 -49 -50 -135 -97 -168
-34 -24 -55 -31 -111 -35 -40 -2 -84 0 -105 7 -78 26 -83 18 224 326 156 157
286 290 287 295 2 6 0 10 -5 10 -4 0 -143 -135 -308 -300z"/>
<path d="M1958 1644 c-5 -4 -8 -103 -8 -221 0 -188 2 -221 20 -274 31 -90 14
-157 -55 -217 -37 -33 -76 -48 -94 -37 -7 4 -12 117 -13 333 l-3 327 -5 -340
-5 -340 24 -3 c37 -5 113 40 145 86 35 49 46 132 25 184 -10 23 -15 104 -19
271 -3 131 -8 235 -12 231z"/>
<path d="M1873 1144 c-3 -8 -1 -20 6 -27 8 -8 11 -7 11 6 0 22 16 22 29 0 6
-10 10 -13 10 -8 0 15 -25 45 -38 45 -6 0 -14 -7 -18 -16z"/>
<path d="M1931 1086 c-1 -12 -6 -16 -16 -13 -8 4 -17 2 -20 -4 -9 -13 24 -24
37 -11 5 5 8 18 5 28 -5 19 -5 19 -6 0z"/>
</g>
</svg>
