<?xml version="1.0" encoding="UTF-8" standalone="no"?> <svg xmlns="http://www.w3.org/2000/svg" viewBox="0 0 64 64"><g id="Layer_34" data-name="Layer 34"><path d="M58.76,28.34a9.24,9.24,0,0,0-9.21-8.28H43.41V15.68h8.34a8,8,0,0,0,7.94-7.94,1,1,0,0,0-1-1H5.31a1,1,0,0,0-1,1,8,8,0,0,0,7.94,7.94h8.34v4.38H14.45a9.24,9.24,0,0,0-9.21,8.29L3,52.38a4.43,4.43,0,0,0,4.38,4.88H56.59A4.41,4.41,0,0,0,61,52.4ZM6.4,8.74H57.61a6,6,0,0,1-5.86,4.94H12.25A5.94,5.94,0,0,1,6.4,8.74Zm16.19,6.94H41.41v4.38H22.59ZM58.38,54.46a2.34,2.34,0,0,1-1.79.8H7.41A2.41,2.41,0,0,1,5,52.58l2.21-24a7.24,7.24,0,0,1,7.22-6.49h35.1a7.24,7.24,0,0,1,7.22,6.48L59,52.6A2.36,2.36,0,0,1,58.38,54.46Z"/><path d="M32,27.25A11.42,11.42,0,0,0,20.59,38.66c.63,15.14,22.2,15.13,22.82,0A11.42,11.42,0,0,0,32,27.25Zm0,20.82a9.42,9.42,0,0,1-9.41-9.41c.51-12.48,18.31-12.48,18.82,0A9.42,9.42,0,0,1,32,48.07Z"/><path d="M35.76,33.48,31.29,38A1,1,0,0,0,32,39.66a1,1,0,0,0,.71-.29l4.47-4.47A1,1,0,0,0,35.76,33.48Z"/></g></svg>